<?xml version="1.0" encoding="UTF-8"?>
<svg width="162px" height="40px" viewBox="0 0 162 40" version="1.1" xmlns="http://www.w3.org/2000/svg" xmlns:xlink="http://www.w3.org/1999/xlink">
    <title>5C5C0C25-B8B2-4A38-9280-2510318C4829</title>
    <defs>
        <linearGradient x1="50%" y1="0%" x2="50%" y2="100%" id="linearGradient-1">
            <stop stop-color="#F452FF" offset="0%"></stop>
            <stop stop-color="#832BC1" offset="100%"></stop>
        </linearGradient>
    </defs>
    <g id="🔤--Typography" stroke="none" stroke-width="1" fill="none" fill-rule="evenodd">
        <g id="Control-Remoto---Home" transform="translate(-560.000000, -721.000000)">
            <g id="Group" transform="translate(403.000000, 507.000000)">
                <g id="Group-2" transform="translate(46.000000, 214.000000)">
                    <g id="apple" transform="translate(111.000000, 0.000000)">
                        <path d="M7.9379359,39.997909 C7.6184979,39.997909 7.3068178,39.99383 6.9898958,39.98672 C6.4037527,39.970302 5.7085792,39.937676 5.0303892,39.816166 C4.3904647,39.700722 3.8218294,39.51281 3.2935562,39.243229 C2.7468317,38.966538 2.2554612,38.609118 1.8289846,38.180174 C1.394855,37.755411 1.038095,37.26728 0.759124,36.719858 C0.4872819,36.19199 0.3015109,35.625222 0.1898596,34.986929 C0.0618538,34.283384 0.0291447,33.569487 0.0153062,33.026247 C0.0087015,32.80571 0,32.071421 0,32.071421 L0,7.915194 C0,7.915194 0.0092256,7.192199 0.0153062,6.979818 C0.0291447,6.431977 0.0618538,5.7187075 0.1888113,5.0221688 C0.3009868,4.3804246 0.4867578,3.8141797 0.7585998,3.2841159 C1.0370467,2.7357524 1.3943308,2.2451114 1.8227993,1.8223361 C2.2564047,1.389313 2.749872,1.0309526 3.2929272,0.7531109 C3.8314744,0.4804978 4.3991662,0.29405 5.0261957,0.1843564 C5.7320626,0.0582453 6.4477842,0.0265607 6.9924119,0.0127575 L7.9384601,0 L154.056298,0 L155.013564,0.0132804 C155.551063,0.0265607 156.266679,0.0582453 156.961853,0.1833107 C157.593495,0.2936317 158.164856,0.4810206 158.713573,0.756248 C159.251072,1.0309526 159.74349,1.3894175 160.172483,1.8182579 C160.601476,2.24302 160.960752,2.7362752 161.245384,3.2867301 C161.515653,3.8212904 161.699957,4.3875353 161.806471,5.0109798 C161.928292,5.67071 161.966138,6.348217 161.988678,6.984419 C161.991718,7.28056 161.991718,7.598662 161.991718,7.915194 C162,8.30733 162,8.68054 162,9.056886 L162,30.941964 C162,31.321866 162,31.692565 161.991718,32.066297 C161.991718,32.406358 161.991718,32.717871 161.987629,33.038482 C161.966138,33.654293 161.928292,34.331381 161.808463,34.976681 C161.699957,35.618007 161.515653,36.184775 161.242344,36.722995 C160.959808,37.266234 160.600427,37.757398 160.17762,38.172017 C159.744539,38.609118 159.253063,38.965492 158.710532,39.241242 C158.166848,39.516888 157.611947,39.699676 156.961853,39.816166 C156.290268,39.937676 155.595094,39.970302 155.002241,39.98672 C154.695174,39.99383 154.373639,39.997909 154.061435,39.997909 L152.925003,40 L7.9379359,39.997909 Z" id="Path" fill="#111111" fill-rule="nonzero"></path>
                        <g id="XMLID_632_" transform="translate(9.000000, 7.000000)">
                            <path d="M24.2135577,21.3731731 C23.9783654,21.9705769 23.4356731,22.8117308 22.6660577,23.4042308 C22.2217308,23.7464423 21.69125,24.0735577 20.9625962,24.2894231 C20.1858654,24.5196154 19.2291346,24.5974038 18.0383654,24.5974038 L7.15057692,24.5974038 C5.95990385,24.5974038 5.00317308,24.5196154 4.22634615,24.2894231 C3.49769231,24.0735577 2.96730769,23.7464423 2.52288462,23.4042308 C1.75336538,22.8116346 1.21057692,21.9705769 0.975384615,21.3731731 C0.501634615,20.1695192 0.496826923,18.8038462 0.496826923,17.94375 L0.496826923,17.94375 L0.496826923,7.05586538 L0.496826923,7.05586538 C0.496826923,6.19576923 0.501634615,4.83009615 0.975384615,3.62644231 C1.21057692,3.02903846 1.75326923,2.18788462 2.52288462,1.59538462 C2.96721154,1.25317308 3.49769231,0.926057692 4.22634615,0.710192308 C5.00307692,0.48 5.95980769,0.402211538 7.15057692,0.402211538 L7.15057692,0.402211538 L18.0384615,0.402211538 L18.0384615,0.402211538 C19.2291346,0.402211538 20.1858654,0.48 20.9626923,0.710192308 C21.6913462,0.926057692 22.2217308,1.25326923 22.6661538,1.59538462 C23.4356731,2.18798077 23.9784615,3.02903846 24.2136538,3.62644231 C24.6874038,4.83009615 24.6922115,6.19576923 24.6922115,7.05586538 L24.6922115,17.94375 C24.6922115,18.80375 24.6873077,20.1694231 24.2135577,21.3731731 Z" id="XMLID_662_" fill="url(#linearGradient-1)" fill-rule="nonzero"></path>
                            <path d="M24.2135577,21.3731731 C23.9783654,21.9705769 23.4356731,22.8117308 22.6660577,23.4042308 C22.2217308,23.7464423 21.69125,24.0735577 20.9625962,24.2894231 C20.1858654,24.5196154 19.2291346,24.5974038 18.0383654,24.5974038 L7.15057692,24.5974038 C5.95990385,24.5974038 5.00317308,24.5196154 4.22634615,24.2894231 C3.49769231,24.0735577 2.96730769,23.7464423 2.52288462,23.4042308 C1.75336538,22.8116346 1.21057692,21.9705769 0.975384615,21.3731731 C0.501634615,20.1695192 0.496826923,18.8038462 0.496826923,17.94375 L0.496826923,17.94375 L0.496826923,7.05586538 L0.496826923,7.05586538 C0.496826923,6.19576923 0.501634615,4.83009615 0.975384615,3.62644231 C1.21057692,3.02903846 1.75326923,2.18788462 2.52288462,1.59538462 C2.96721154,1.25317308 3.49769231,0.926057692 4.22634615,0.710192308 C5.00307692,0.48 5.95980769,0.402211538 7.15057692,0.402211538 L7.15057692,0.402211538 L18.0384615,0.402211538 L18.0384615,0.402211538 C19.2291346,0.402211538 20.1858654,0.48 20.9626923,0.710192308 C21.6913462,0.926057692 22.2217308,1.25326923 22.6661538,1.59538462 C23.4356731,2.18798077 23.9784615,3.02903846 24.2136538,3.62644231 C24.6874038,4.83009615 24.6922115,6.19576923 24.6922115,7.05586538 L24.6922115,17.94375 C24.6922115,18.80375 24.6873077,20.1694231 24.2135577,21.3731731 Z" id="XMLID_660_"></path>
                            <g id="XMLID_648_" transform="translate(3.846154, 2.884615)" fill="#FFFFFF" fill-rule="nonzero">
                                <path d="M10.5030769,11.4245192 C10.14,11.0414423 9.50230769,10.7958654 8.74951923,10.7958654 C7.99663462,10.7958654 7.35894231,11.0414423 6.99586538,11.4245192 C6.80644231,11.6244231 6.70625,11.8293269 6.67471154,12.12125 C6.61355769,12.6865385 6.64788462,13.1732692 6.71413462,13.9514423 C6.77721154,14.6929808 6.89701923,15.6818269 7.05336538,16.6889423 C7.16461538,17.4056731 7.255,17.7925 7.33730769,18.0695192 C7.47076923,18.5184615 7.96951923,18.9110577 8.74951923,18.9110577 C9.52942308,18.9110577 10.0281731,18.5183654 10.1616346,18.0695192 C10.2439423,17.7925 10.3343269,17.4056731 10.4455769,16.6889423 C10.6019231,15.6818269 10.7217308,14.6929808 10.7848077,13.9514423 C10.8510577,13.1731731 10.8853846,12.6864423 10.8242308,12.12125 C10.7926923,11.8294231 10.6925,11.6244231 10.5030769,11.4245192 Z M6.77125,8.01365385 C6.77125,9.10721154 7.65778846,9.99375 8.75134615,9.99375 C9.845,9.99375 10.7315385,9.10721154 10.7315385,8.01365385 C10.7315385,6.92 9.845,6.03346154 8.75134615,6.03346154 C7.65778846,6.03346154 6.77125,6.92 6.77125,8.01365385 Z M8.72682692,0.199160053 C4.09576923,0.212403846 0.301057692,3.96942308 0.24375,8.60019231 C0.197211538,12.3514423 2.59182692,15.5602885 5.93557692,16.7364423 C6.01673077,16.765 6.09913462,16.6975962 6.08634615,16.6125 C6.0425,16.32125 6.00115385,16.0285577 5.96317308,15.7407692 C5.94971154,15.6390385 5.88490385,15.5513462 5.79096154,15.5102885 C3.14807692,14.3556731 1.30259615,11.7050962 1.33221154,8.63480769 C1.37105769,4.60557692 4.66125,1.32076923 8.69048077,1.28817308 C12.8096154,1.25490385 16.17125,4.59605769 16.17125,8.70759615 C16.17125,11.7471154 14.3338462,14.3651923 11.7115385,15.5105769 C11.6175962,15.5516346 11.5531731,15.6396154 11.5398077,15.74125 C11.5018269,16.0289423 11.4604808,16.3215385 11.4167308,16.6125 C11.4038462,16.6975962 11.48625,16.765 11.5674038,16.7365385 C14.8792308,15.5716346 17.2599038,12.4126923 17.2599038,8.70769231 C17.2597115,4.00778846 13.4296154,0.185769231 8.72682692,0.199160053 Z M8.57307692,4.10259615 C11.1983654,4.00096154 13.3664423,6.10711538 13.3664423,8.71019231 C13.3664423,10.0340385 12.8055769,11.2292308 11.9091346,12.0709615 C11.8330769,12.1423077 11.7922115,12.2436538 11.7980769,12.3477885 C11.8159615,12.6644231 11.8094231,12.9721154 11.7883654,13.3196154 C11.7826923,13.4122115 11.8865385,13.4713462 11.9631731,13.4191346 C13.4664423,12.3918269 14.4551923,10.6644231 14.4551923,8.71019231 C14.4551923,5.4925 11.775,2.88894231 8.52990385,3.01471154 C5.51413462,3.13163462 3.09461538,5.61807692 3.05596154,8.63596154 C3.03057692,10.6207692 4.02538462,12.3791346 5.54798077,13.4193269 C5.62442308,13.4715385 5.72798077,13.4123077 5.72230769,13.3198077 C5.70115385,12.9721154 5.69471154,12.6644231 5.7125,12.3477885 C5.71836538,12.24375 5.67759615,12.1424038 5.60173077,12.0711538 C4.67730769,11.2032692 4.10961538,9.95951923 4.14576923,8.58644231 C4.20942308,6.17009615 6.15759615,4.19615385 8.57307692,4.10259615 Z" id="Shape"></path>
                            </g>
                        </g>
                        <path d="M40,14.895803 L40,9.104197 L40.91019,9.104197 L40.91019,14.131693 L43.668064,14.131693 L43.668064,14.895803 L40,14.895803 Z M45.008719,9.998553 C44.726561,9.998553 44.48081,9.781476 44.48081,9.503618 C44.48081,9.22576 44.726561,9 45.008719,9 C45.29998,9 45.536629,9.22576 45.536629,9.503618 C45.536629,9.781476 45.29998,9.998553 45.008719,9.998553 Z M44.608236,14.895803 L44.608236,10.701881 L45.427407,10.701881 L45.427407,14.895803 L44.608236,14.895803 Z M46.303866,14.34877 L46.695247,13.775687 C46.99561,14.088278 47.578131,14.374819 48.169754,14.374819 C48.788683,14.374819 49.116351,14.131693 49.116351,13.775687 C49.116351,13.3589 48.615747,13.219971 48.05143,13.098408 C47.305074,12.93343 46.431292,12.742402 46.431292,11.839363 C46.431292,11.170767 47.032017,10.597685 48.106041,10.597685 C48.861498,10.597685 49.407612,10.858177 49.78079,11.196816 L49.416714,11.743849 C49.161861,11.448625 48.670358,11.231548 48.115143,11.231548 C47.559927,11.231548 47.214055,11.439942 47.214055,11.778582 C47.214055,12.143271 47.687354,12.264834 48.233467,12.386397 C48.998027,12.551375 49.908216,12.751085 49.908216,13.714906 C49.908216,14.435601 49.289287,15 48.133347,15 C47.396093,15 46.749859,14.782923 46.303866,14.34877 Z M52.113552,15 C51.421808,15 51.066834,14.626628 51.066834,13.966715 L51.066834,11.387844 L50.338682,11.387844 L50.338682,10.701881 L51.066834,10.701881 L51.066834,9.555716 L51.886004,9.555716 L51.886004,10.701881 L52.77799,10.701881 L52.77799,11.387844 L51.886004,11.387844 L51.886004,13.793054 C51.886004,14.088278 52.031635,14.305355 52.313794,14.305355 C52.504933,14.305355 52.677869,14.227207 52.759786,14.140376 L52.96913,14.730825 C52.796194,14.88712 52.541341,15 52.113552,15 Z M53.37229,12.794501 C53.37229,11.578871 54.291582,10.597685 55.574949,10.597685 C56.894724,10.597685 57.713895,11.578871 57.713895,12.863965 L57.713895,13.054993 L54.236971,13.054993 C54.300684,13.767004 54.846798,14.357453 55.729681,14.357453 C56.193878,14.357453 56.703584,14.183792 57.031252,13.862518 L57.413532,14.374819 C56.976641,14.782923 56.357712,15 55.647764,15 C54.337091,15 53.37229,14.114327 53.37229,12.794501 Z M55.574949,11.240232 C54.692065,11.240232 54.273378,11.917511 54.227869,12.490593 L56.912928,12.490593 C56.894724,11.934877 56.503342,11.240232 55.574949,11.240232 Z M61.666794,14.895803 L61.666794,12.212735 C61.666794,11.51809 61.293616,11.29233 60.729299,11.29233 C60.219593,11.29233 59.755396,11.587554 59.518747,11.900145 L59.518747,14.895803 L58.699576,14.895803 L58.699576,10.701881 L59.518747,10.701881 L59.518747,11.29233 C59.810007,10.95369 60.392529,10.597685 61.075171,10.597685 C62.003564,10.597685 62.485965,11.06657 62.485965,11.952243 L62.485965,14.895803 L61.666794,14.895803 Z M67.997965,15 C66.632681,15 65.777103,14.01013 65.777103,12.794501 C65.777103,11.587554 66.632681,10.597685 67.997965,10.597685 C69.372352,10.597685 70.218828,11.587554 70.218828,12.794501 C70.218828,14.01013 69.372352,15 67.997965,15 Z M67.997965,14.305355 C68.880849,14.305355 69.36325,13.593343 69.36325,12.794501 C69.36325,12.004342 68.880849,11.29233 67.997965,11.29233 C67.124184,11.29233 66.632681,12.004342 66.632681,12.794501 C66.632681,13.593343 67.124184,14.305355 67.997965,14.305355 Z M74.180829,14.895803 L74.180829,12.212735 C74.180829,11.51809 73.807652,11.29233 73.243334,11.29233 C72.733628,11.29233 72.269431,11.587554 72.032782,11.900145 L72.032782,14.895803 L71.213612,14.895803 L71.213612,10.701881 L72.032782,10.701881 L72.032782,11.29233 C72.324043,10.95369 72.906564,10.597685 73.589206,10.597685 C74.5176,10.597685 75,11.06657 75,11.952243 L75,14.895803 L74.180829,14.895803 Z" id="Listenon-Copy" fill="#FFFFFF" fill-rule="nonzero"></path>
                        <path d="M47.709129,31.085427 L46.61113,27.819095 L42.036134,27.819095 L40.938135,31.085427 L39,31.085427 L43.333769,19 L45.346768,19 L49.680537,31.085427 L47.709129,31.085427 Z M44.298677,21.01005 L42.51027,26.311558 L46.136994,26.311558 L44.348587,21.01005 L44.298677,21.01005 Z M55.265046,22.132328 C57.485999,22.132328 58.949998,23.891122 58.949998,26.680067 C58.949998,29.469012 57.494317,31.236181 55.298319,31.236181 C54.042275,31.236181 53.044094,30.616415 52.545003,29.636516 L52.503412,29.636516 L52.503412,34 L50.706686,34 L50.706686,22.274707 L52.445185,22.274707 L52.445185,23.79062 L52.478458,23.79062 C52.994184,22.777219 54.000684,22.132328 55.265046,22.132328 Z M54.79091,29.703518 C56.213318,29.703518 57.103363,28.530988 57.103363,26.680067 C57.103363,24.837521 56.213318,23.656616 54.79091,23.656616 C53.418411,23.656616 52.495094,24.862647 52.495094,26.680067 C52.495094,28.514238 53.410093,29.703518 54.79091,29.703518 Z M64.809007,22.132328 C67.02996,22.132328 68.493959,23.891122 68.493959,26.680067 C68.493959,29.469012 67.038278,31.236181 64.84228,31.236181 C63.586235,31.236181 62.588054,30.616415 62.088964,29.636516 L62.047373,29.636516 L62.047373,34 L60.250647,34 L60.250647,22.274707 L61.989146,22.274707 L61.989146,23.79062 L62.022418,23.79062 C62.538145,22.777219 63.544644,22.132328 64.809007,22.132328 Z M64.334871,29.703518 C65.757279,29.703518 66.647324,28.530988 66.647324,26.680067 C66.647324,24.837521 65.757279,23.656616 64.334871,23.656616 C62.962372,23.656616 62.039055,24.862647 62.039055,26.680067 C62.039055,28.514238 62.954054,29.703518 64.334871,29.703518 Z M69.861153,31.085427 L69.861153,19 L71.657879,19 L71.657879,31.085427 L69.861153,31.085427 Z M77.084343,23.572864 C75.828299,23.572864 74.946572,24.536013 74.855073,25.867672 L79.230433,25.867672 C79.188842,24.519263 78.340388,23.572864 77.084343,23.572864 Z M79.222114,28.497487 L80.92734,28.497487 C80.677795,30.105528 79.163887,31.252931 77.159207,31.252931 C74.588891,31.252931 73.033392,29.502513 73.033392,26.721943 C73.033392,23.958124 74.613845,22.115578 77.084343,22.115578 C79.513251,22.115578 81.027158,23.840871 81.027158,26.512563 L81.027158,27.132328 L74.846754,27.132328 L74.846754,27.241206 C74.846754,28.773869 75.761754,29.78727 77.200798,29.78727 C78.223933,29.78727 78.980887,29.268007 79.222114,28.497487 Z M85.924274,19 L90.424406,19 C92.753495,19 94.375539,20.616415 94.375539,22.969849 C94.375539,25.331658 92.720222,26.956449 90.366179,26.956449 L87.787545,26.956449 L87.787545,31.085427 L85.924274,31.085427 L85.924274,19 Z M87.787545,20.582915 L87.787545,25.38191 L89.925316,25.38191 C91.54736,25.38191 92.470677,24.502513 92.470677,22.978224 C92.470677,21.453936 91.54736,20.582915 89.933634,20.582915 L87.787545,20.582915 Z M99.094959,31.252931 C96.591188,31.252931 94.944189,29.519263 94.944189,26.680067 C94.944189,23.849246 96.599506,22.115578 99.094959,22.115578 C101.590411,22.115578 103.245728,23.849246 103.245728,26.680067 C103.245728,29.519263 101.598729,31.252931 99.094959,31.252931 Z M99.094959,29.762144 C100.509048,29.762144 101.415729,28.639866 101.415729,26.680067 C101.415729,24.728643 100.50073,23.606365 99.094959,23.606365 C97.689187,23.606365 96.774188,24.728643 96.774188,26.680067 C96.774188,28.639866 97.689187,29.762144 99.094959,29.762144 Z M107.840375,31.236181 C105.62774,31.236181 104.163741,29.460637 104.163741,26.680067 C104.163741,23.899497 105.62774,22.132328 107.823738,22.132328 C109.079783,22.132328 110.077964,22.768844 110.568736,23.740369 L110.602009,23.740369 L110.602009,19 L112.407053,19 L112.407053,31.085427 L110.660236,31.085427 L110.660236,29.586265 L110.626963,29.586265 C110.111236,30.59129 109.113055,31.236181 107.840375,31.236181 Z M108.314511,23.656616 C106.892103,23.656616 106.002058,24.829146 106.002058,26.680067 C106.002058,28.539363 106.892103,29.703518 108.314511,29.703518 C109.695328,29.703518 110.618645,28.522613 110.618645,26.680067 C110.618645,24.854271 109.695328,23.656616 108.314511,23.656616 Z M121.676514,25.306533 L119.96297,25.306533 C119.77997,24.368509 119.081243,23.623116 117.908381,23.623116 C116.519245,23.623116 115.604246,24.78727 115.604246,26.680067 C115.604246,28.61474 116.527564,29.737018 117.925017,29.737018 C119.031334,29.737018 119.755015,29.125628 119.96297,28.103853 L121.69315,28.103853 C121.501832,29.979899 120.012879,31.252931 117.908381,31.252931 C115.40461,31.252931 113.774248,29.527638 113.774248,26.680067 C113.774248,23.882747 115.40461,22.115578 117.891744,22.115578 C120.14597,22.115578 121.518469,23.572864 121.676514,25.306533 Z M125.946752,29.80402 C127.202796,29.80402 128.184341,28.932998 128.184341,27.785595 L128.184341,27.090452 L126.029933,27.224456 C124.956889,27.299832 124.349662,27.777219 124.349662,28.530988 C124.349662,29.301508 124.981843,29.80402 125.946752,29.80402 Z M125.447661,31.236181 C123.734117,31.236181 122.5363,30.164154 122.5363,28.58124 C122.5363,27.040201 123.709163,26.093802 125.788706,25.976549 L128.184341,25.834171 L128.184341,25.155779 C128.184341,24.175879 127.527205,23.589615 126.429206,23.589615 C125.389434,23.589615 124.740616,24.092127 124.582571,24.879397 L122.885663,24.879397 C122.985481,23.288107 124.333026,22.115578 126.495751,22.115578 C128.616886,22.115578 129.972748,23.246231 129.972748,25.0134 L129.972748,31.085427 L128.250886,31.085427 L128.250886,29.636516 L128.209295,29.636516 C127.701887,30.616415 126.595569,31.236181 125.447661,31.236181 Z M131.473034,24.770519 C131.473034,23.19598 132.837215,22.115578 134.850213,22.115578 C136.888166,22.115578 138.210756,23.254606 138.268983,24.879397 L136.580393,24.879397 C136.480575,24.025126 135.856712,23.489112 134.850213,23.489112 C133.876987,23.489112 133.228169,23.966499 133.228169,24.670017 C133.228169,25.222781 133.627441,25.599665 134.575713,25.81742 L135.998121,26.144054 C137.786529,26.562814 138.468619,27.266332 138.468619,28.539363 C138.468619,30.147404 136.979666,31.252931 134.916758,31.252931 C132.729078,31.252931 131.414807,30.172529 131.248443,28.497487 L133.028533,28.497487 C133.194896,29.41876 133.818759,29.871022 134.916758,29.871022 C135.998121,29.871022 136.663575,29.41876 136.663575,28.698492 C136.663575,28.128978 136.339166,27.79397 135.382576,27.576214 L133.960168,27.241206 C132.296533,26.855946 131.473034,26.051926 131.473034,24.770519 Z M140.301632,20.18928 L142.106676,20.18928 L142.106676,22.274707 L143.770311,22.274707 L143.770311,23.706868 L142.106676,23.706868 L142.106676,28.564489 C142.106676,29.326633 142.439403,29.670017 143.171402,29.670017 C143.354402,29.670017 143.645538,29.653266 143.761993,29.628141 L143.761993,31.060302 C143.562356,31.110553 143.163084,31.144054 142.763812,31.144054 C140.99204,31.144054 140.301632,30.465662 140.301632,28.765494 L140.301632,23.706868 L139.028951,23.706868 L139.028951,22.274707 L140.301632,22.274707 L140.301632,20.18928 Z M145.004415,24.770519 C145.004415,23.19598 146.368596,22.115578 148.381594,22.115578 C150.419547,22.115578 151.742137,23.254606 151.800364,24.879397 L150.111774,24.879397 C150.011956,24.025126 149.388093,23.489112 148.381594,23.489112 C147.408367,23.489112 146.75955,23.966499 146.75955,24.670017 C146.75955,25.222781 147.158822,25.599665 148.107094,25.81742 L149.529502,26.144054 C151.31791,26.562814 152,27.266332 152,28.539363 C152,30.147404 150.511047,31.252931 148.448139,31.252931 C146.260459,31.252931 144.946188,30.172529 144.779824,28.497487 L146.559914,28.497487 C146.726277,29.41876 147.35014,29.871022 148.448139,29.871022 C149.529502,29.871022 150.194956,29.41876 150.194956,28.698492 C150.194956,28.128978 149.870547,27.79397 148.913957,27.576214 L147.491549,27.241206 C145.827914,26.855946 145.004415,26.051926 145.004415,24.770519 Z" id="ApplePodcasts" fill="#FFFFFF" fill-rule="nonzero"></path>
                    </g>
                </g>
            </g>
        </g>
    </g>
</svg>