<?xml version="1.0" encoding="UTF-8"?>
<svg width="106px" height="40px" viewBox="0 0 106 40" version="1.1" xmlns="http://www.w3.org/2000/svg" xmlns:xlink="http://www.w3.org/1999/xlink">
    <title>7EA7DE56-CEA4-4836-A3D0-A88A92047840</title>
    <g id="🔤--Typography" stroke="none" stroke-width="1" fill="none" fill-rule="evenodd">
        <g id="Control-Remoto---Home" transform="translate(-449.000000, -721.000000)" fill-rule="nonzero">
            <g id="Group" transform="translate(403.000000, 507.000000)">
                <g id="spotify" transform="translate(46.000000, 214.000000)">
                    <path d="M7.937936,39.997909 C7.618498,39.997909 7.306818,39.99383 6.989896,39.98672 C6.403753,39.970302 5.708579,39.937676 5.030389,39.816166 C4.390465,39.700722 3.821829,39.51281 3.293556,39.243229 C2.746832,38.966538 2.255461,38.609118 1.828985,38.180174 C1.394855,37.755411 1.038095,37.26728 0.759124,36.719858 C0.487282,36.19199 0.301511,35.625222 0.18986,34.986929 C0.061854,34.283384 0.029145,33.569487 0.015306,33.026247 C0.008701,32.80571 0,32.071421 0,32.071421 L0,7.915194 C0,7.915194 0.009226,7.192199 0.015306,6.979818 C0.029145,6.431977 0.061854,5.7187075 0.188811,5.0221688 C0.300987,4.3804246 0.486758,3.8141797 0.7586,3.2841159 C1.037047,2.7357524 1.394331,2.2451114 1.822799,1.8223361 C2.256405,1.389313 2.749872,1.0309526 3.292927,0.7531109 C3.831474,0.4804978 4.399166,0.29405 5.026196,0.1843564 C5.732063,0.0582453 6.447784,0.0265607 6.992412,0.0127575 L7.93846,0 L98.056298,0 L99.013564,0.0132804 C99.551063,0.0265607 100.266679,0.0582453 100.961853,0.1833107 C101.593495,0.2936317 102.164856,0.4810206 102.713573,0.756248 C103.251072,1.0309526 103.74349,1.3894175 104.172483,1.8182579 C104.601476,2.24302 104.960752,2.7362752 105.245384,3.2867301 C105.515653,3.8212904 105.699957,4.3875353 105.806471,5.0109798 C105.928292,5.67071 105.966138,6.348217 105.988678,6.984419 C105.991718,7.28056 105.991718,7.598662 105.991718,7.915194 C106,8.30733 106,8.68054 106,9.056886 L106,30.941964 C106,31.321866 106,31.692565 105.991718,32.066297 C105.991718,32.406358 105.991718,32.717871 105.987629,33.038482 C105.966138,33.654293 105.928292,34.331381 105.808463,34.976681 C105.699957,35.618007 105.515653,36.184775 105.242344,36.722995 C104.959808,37.266234 104.600427,37.757398 104.17762,38.172017 C103.744539,38.609118 103.253063,38.965492 102.710532,39.241242 C102.166848,39.516888 101.611947,39.699676 100.961853,39.816166 C100.290268,39.937676 99.595094,39.970302 99.002241,39.98672 C98.695174,39.99383 98.373639,39.997909 98.061435,39.997909 L96.925003,40 L7.937936,39.997909 Z" id="Path-Copy" fill="#111111"></path>
                    <path d="M39,14.895803 L39,9.104197 L39.91019,9.104197 L39.91019,14.131693 L42.668064,14.131693 L42.668064,14.895803 L39,14.895803 Z M44.008719,9.998553 C43.726561,9.998553 43.48081,9.781476 43.48081,9.503618 C43.48081,9.22576 43.726561,9 44.008719,9 C44.29998,9 44.536629,9.22576 44.536629,9.503618 C44.536629,9.781476 44.29998,9.998553 44.008719,9.998553 Z M43.608236,14.895803 L43.608236,10.701881 L44.427407,10.701881 L44.427407,14.895803 L43.608236,14.895803 Z M45.303866,14.34877 L45.695247,13.775687 C45.99561,14.088278 46.578131,14.374819 47.169754,14.374819 C47.788683,14.374819 48.116351,14.131693 48.116351,13.775687 C48.116351,13.3589 47.615747,13.219971 47.05143,13.098408 C46.305074,12.93343 45.431292,12.742402 45.431292,11.839363 C45.431292,11.170767 46.032017,10.597685 47.106041,10.597685 C47.861498,10.597685 48.407612,10.858177 48.78079,11.196816 L48.416714,11.743849 C48.161861,11.448625 47.670358,11.231548 47.115143,11.231548 C46.559927,11.231548 46.214055,11.439942 46.214055,11.778582 C46.214055,12.143271 46.687354,12.264834 47.233467,12.386397 C47.998027,12.551375 48.908216,12.751085 48.908216,13.714906 C48.908216,14.435601 48.289287,15 47.133347,15 C46.396093,15 45.749859,14.782923 45.303866,14.34877 Z M51.113552,15 C50.421808,15 50.066834,14.626628 50.066834,13.966715 L50.066834,11.387844 L49.338682,11.387844 L49.338682,10.701881 L50.066834,10.701881 L50.066834,9.555716 L50.886004,9.555716 L50.886004,10.701881 L51.77799,10.701881 L51.77799,11.387844 L50.886004,11.387844 L50.886004,13.793054 C50.886004,14.088278 51.031635,14.305355 51.313794,14.305355 C51.504933,14.305355 51.677869,14.227207 51.759786,14.140376 L51.96913,14.730825 C51.796194,14.88712 51.541341,15 51.113552,15 Z M52.37229,12.794501 C52.37229,11.578871 53.291582,10.597685 54.574949,10.597685 C55.894724,10.597685 56.713895,11.578871 56.713895,12.863965 L56.713895,13.054993 L53.236971,13.054993 C53.300684,13.767004 53.846798,14.357453 54.729681,14.357453 C55.193878,14.357453 55.703584,14.183792 56.031252,13.862518 L56.413532,14.374819 C55.976641,14.782923 55.357712,15 54.647764,15 C53.337091,15 52.37229,14.114327 52.37229,12.794501 Z M54.574949,11.240232 C53.692065,11.240232 53.273378,11.917511 53.227869,12.490593 L55.912928,12.490593 C55.894724,11.934877 55.503342,11.240232 54.574949,11.240232 Z M60.666794,14.895803 L60.666794,12.212735 C60.666794,11.51809 60.293616,11.29233 59.729299,11.29233 C59.219593,11.29233 58.755396,11.587554 58.518747,11.900145 L58.518747,14.895803 L57.699576,14.895803 L57.699576,10.701881 L58.518747,10.701881 L58.518747,11.29233 C58.810007,10.95369 59.392529,10.597685 60.075171,10.597685 C61.003564,10.597685 61.485965,11.06657 61.485965,11.952243 L61.485965,14.895803 L60.666794,14.895803 Z M66.997965,15 C65.632681,15 64.777103,14.01013 64.777103,12.794501 C64.777103,11.587554 65.632681,10.597685 66.997965,10.597685 C68.372352,10.597685 69.218828,11.587554 69.218828,12.794501 C69.218828,14.01013 68.372352,15 66.997965,15 Z M66.997965,14.305355 C67.880849,14.305355 68.36325,13.593343 68.36325,12.794501 C68.36325,12.004342 67.880849,11.29233 66.997965,11.29233 C66.124184,11.29233 65.632681,12.004342 65.632681,12.794501 C65.632681,13.593343 66.124184,14.305355 66.997965,14.305355 Z M73.180829,14.895803 L73.180829,12.212735 C73.180829,11.51809 72.807652,11.29233 72.243334,11.29233 C71.733628,11.29233 71.269431,11.587554 71.032782,11.900145 L71.032782,14.895803 L70.213612,14.895803 L70.213612,10.701881 L71.032782,10.701881 L71.032782,11.29233 C71.324043,10.95369 71.906564,10.597685 72.589206,10.597685 C73.5176,10.597685 74,11.06657 74,11.952243 L74,14.895803 L73.180829,14.895803 Z" id="Listenon" fill="#FFFFFF"></path>
                    <path d="M39,27.651987 L40.801602,27.651987 C40.966887,28.803974 42.090822,29.496778 43.677554,29.496778 C45.189908,29.496778 46.272522,28.739527 46.272522,27.700322 C46.272522,26.798067 45.644441,26.234157 44.049444,25.895811 L42.75196,25.629968 C40.363598,25.138561 39.280984,24.059076 39.280984,22.383459 C39.280984,20.393663 41.074322,19.024168 43.61144,19.024168 C46.140294,19.024168 47.867518,20.41783 47.925368,22.447905 L46.13203,22.447905 C46.016331,21.279807 45.032888,20.562836 43.586647,20.562836 C42.189993,20.562836 41.165228,21.223416 41.165228,22.286788 C41.165228,23.132653 41.776781,23.696563 43.322192,24.018797 L44.62794,24.28464 C47.123738,24.800215 48.148502,25.774973 48.148502,27.466702 C48.148502,29.657895 46.379957,31.035446 43.603176,31.035446 C40.909037,31.035446 39.115699,29.722342 39,27.651987 Z M54.043892,22.230397 C56.250442,22.230397 57.704946,23.922127 57.704946,26.604726 C57.704946,29.287325 56.258706,30.987111 54.076949,30.987111 C52.829051,30.987111 51.837343,30.390977 51.341489,29.448443 L51.300168,29.448443 L51.300168,33.645542 L49.515095,33.645542 L49.515095,22.367347 L51.242319,22.367347 L51.242319,23.825456 L51.275376,23.825456 C51.787758,22.850698 52.78773,22.230397 54.043892,22.230397 Z M53.572831,29.512889 C54.986015,29.512889 55.870287,28.38507 55.870287,26.604726 C55.870287,24.832438 54.986015,23.696563 53.572831,23.696563 C52.209234,23.696563 51.291904,24.856606 51.291904,26.604726 C51.291904,28.368958 52.200969,29.512889 53.572831,29.512889 Z M62.732592,31.003222 C60.245059,31.003222 58.608742,29.335661 58.608742,26.604726 C58.608742,23.881847 60.253324,22.214286 62.732592,22.214286 C65.211861,22.214286 66.856443,23.881847 66.856443,26.604726 C66.856443,29.335661 65.220126,31.003222 62.732592,31.003222 Z M62.732592,29.56928 C64.137511,29.56928 65.038312,28.489796 65.038312,26.604726 C65.038312,24.727712 64.129247,23.648228 62.732592,23.648228 C61.335938,23.648228 60.426872,24.727712 60.426872,26.604726 C60.426872,28.489796 61.335938,29.56928 62.732592,29.56928 Z M68.677568,20.361439 L70.470906,20.361439 L70.470906,22.367347 L72.123752,22.367347 L72.123752,23.744898 L70.470906,23.744898 L70.470906,28.417293 C70.470906,29.150376 70.801475,29.480666 71.528727,29.480666 C71.71054,29.480666 71.999788,29.464554 72.115488,29.440387 L72.115488,30.817938 C71.917146,30.866273 71.520463,30.898496 71.12378,30.898496 C69.363499,30.898496 68.677568,30.245972 68.677568,28.610634 L68.677568,23.744898 L67.413141,23.744898 L67.413141,22.367347 L68.677568,22.367347 L68.677568,20.361439 Z M73.564722,30.842105 L73.564722,22.367347 L75.349796,22.367347 L75.349796,30.842105 L73.564722,30.842105 Z M74.457259,20.997852 C73.887027,20.997852 73.42423,20.546724 73.42423,19.998926 C73.42423,19.443072 73.887027,19 74.457259,19 C75.027491,19 75.482024,19.443072 75.482024,19.998926 C75.482024,20.546724 75.027491,20.997852 74.457259,20.997852 Z M77.617189,30.842105 L77.617189,23.744898 L76.418876,23.744898 L76.418876,22.383459 L77.617189,22.383459 L77.617189,21.553706 C77.617189,19.910311 78.410555,19.13695 80.179101,19.13695 C80.542727,19.13695 80.947674,19.177229 81.179072,19.217508 L81.179072,20.506445 C81.005524,20.474221 80.765861,20.45811 80.526198,20.45811 C79.749361,20.45811 79.385735,20.836735 79.385735,21.585929 L79.385735,22.383459 L81.146015,22.383459 L81.146015,23.744898 L79.410527,23.744898 L79.410527,30.842105 L77.617189,30.842105 Z M83.339031,34 C83.190275,34 82.744006,33.983888 82.611779,33.959721 L82.611779,32.549946 C82.744006,32.58217 83.041519,32.58217 83.190275,32.58217 C84.016698,32.58217 84.462966,32.243824 84.735686,31.373792 C84.735686,31.35768 84.892706,30.858217 84.892706,30.850161 L81.752299,22.367347 L83.686129,22.367347 L85.884414,29.263158 L85.917471,29.263158 L88.115756,22.367347 L90,22.367347 L86.743894,31.285177 C86.000113,33.33942 85.140633,34 83.339031,34 Z" id="Spotify" fill="#FFFFFF"></path>
                    <path d="M29.098432,19.638262 C25.230312,17.341091 18.849934,17.129874 15.15735,18.250588 C14.56425,18.430567 13.937189,18.095829 13.757496,17.502872 C13.577804,16.909485 13.912255,16.282853 14.505642,16.102588 C18.744468,14.815937 25.791027,15.064411 30.24408,17.707785 C30.777426,18.024468 30.95239,18.713289 30.63628,19.245776 C30.319883,19.779122 29.630489,19.954945 29.098432,19.638262 Z M28.971759,23.040672 C28.700357,23.481019 28.124595,23.619156 27.684821,23.348758 C24.459955,21.36655 19.542481,20.792221 15.727237,21.950336 C15.232437,22.099793 14.709982,21.82094 14.559665,21.327 C14.410637,20.832344 14.689634,20.310748 15.183574,20.160288 C19.541908,18.83767 24.960056,19.478201 28.66396,21.754451 C29.103734,22.02528 29.242158,22.601328 28.971759,23.040672 Z M27.503409,26.308241 C27.287749,26.661894 26.827341,26.772662 26.474977,26.557145 C23.65707,24.834876 20.110218,24.445972 15.933153,25.400033 C15.530635,25.492316 15.129408,25.240116 15.037555,24.837598 C14.945416,24.435224 15.196757,24.033997 15.600134,23.942144 C20.171262,22.897233 24.092258,23.346895 27.255221,25.279665 C27.607872,25.495038 27.718926,25.955734 27.503409,26.308241 Z M22,9 C15.372724,9 10,14.37258 10,20.999857 C10,27.627849 15.372724,33 22,33 C28.627563,33 34,27.627849 34,20.999857 C34,14.37258 28.627563,9 22,9 L22,9 Z" id="Spotify_Icon_RGB_Green" fill="#1ED760"></path>
                </g>
            </g>
        </g>
    </g>
</svg>