<?xml version="1.0" encoding="UTF-8"?>
<svg width="64px" height="64px" viewBox="0 0 64 64" version="1.1" xmlns="http://www.w3.org/2000/svg" xmlns:xlink="http://www.w3.org/1999/xlink">
    <title>favicon</title>
    <g id="favicon" stroke="none" stroke-width="1" fill="none" fill-rule="evenodd">
        <polygon id="Fill-1" fill="#FF2A5B" points="0 64 64 64 64 0 0 0"></polygon>
        <path d="M20.8680988,27.4821043 C22.8423879,27.5105511 24.7853765,27.9173116 26.6978493,28.701601 C28.6103443,29.4874822 30.325865,30.638217 31.843649,32.1561817 C33.3614329,33.6741465 34.5120306,35.3898715 35.2978182,37.3025944 C36.0828212,39.216102 36.4895332,41.159322 36.5179766,43.1338463 C36.5448284,45.1083484 36.1924087,47.0425278 35.4606728,48.9332011 C34.7281522,50.8246592 33.6243536,52.5080144 32.1484924,53.9840515 C30.6734158,55.4593038 28.9894764,56.5640186 27.0990283,57.2958417 C25.2077955,58.0284494 23.2738464,58.3809112 21.3003642,58.3532714 C19.3252905,58.3256094 17.3823018,57.9188489 15.4690222,57.1337524 C13.5565271,56.3478713 11.8417911,55.1963518 10.3240071,53.678387 C8.80622312,52.1604222 7.65484079,50.4454819 6.86905322,48.5327591 C6.08485716,46.6200585 5.67814514,44.6768384 5.6504864,42.7015294 C5.62204303,40.7270051 5.97526968,38.7936327 6.7069833,36.9013676 C7.43871921,35.0106942 8.54330241,33.3265543 10.018379,31.851302 C11.4942403,30.3752649 13.177395,29.2713349 15.0686278,28.5387271 C16.9598829,27.807711 18.893025,27.4544423 20.8680988,27.4821043 Z M20.9969826,36.7434433 C20.2075897,36.7323874 19.4354224,36.8719596 18.6812876,37.162967 C17.9271528,37.4539743 17.2515059,37.895672 16.6567675,38.4904812 C16.0628138,39.0845057 15.6211686,39.7602331 15.330196,40.5144578 C15.0392233,41.2686824 14.8988831,42.0417264 14.9099377,42.8312133 C14.9209923,43.6207003 15.0830405,44.3979794 15.3952531,45.160652 C15.7066811,45.9241093 16.1689958,46.6109058 16.7798212,47.2218039 C17.3914534,47.833509 18.0773612,48.2950718 18.8407276,48.6065369 C19.6033094,48.9187867 20.3804959,49.0808542 21.1698888,49.0919101 C21.9592817,49.102966 22.7322336,48.9626091 23.4863684,48.6716018 C24.2413102,48.3814015 24.9161502,47.9388967 25.5101039,47.3448722 C26.1048423,46.750063 26.5472943,46.0751426 26.8374601,45.320111 C27.1284327,44.5658863 27.2679883,43.793627 27.2569338,43.0041401 C27.2458792,42.2146532 27.083831,41.4373741 26.772403,40.6739168 C26.4601903,39.9112442 25.9994671,39.22447 25.3878349,38.6127649 C24.7770095,38.0018667 24.0895102,37.5402816 23.3269284,37.2280318 C22.5635621,36.9165667 21.7863755,36.7544992 20.9969826,36.7434433 Z M28.5756028,18.3831699 L28.9367643,18.3892512 C37.6275652,19.5118835 44.4796192,26.3647352 45.6016005,35.0537164 C45.7221345,35.7648888 45.4715869,36.6101449 44.9411481,37.2142745 C44.4341791,37.7902292 43.6749396,38.1413783 42.9093283,38.1520986 L42.8051049,38.1511712 C41.5175204,38.1047564 40.4748523,37.1606546 40.2942828,35.906926 C39.4778286,29.5487613 34.4808036,24.5523315 28.1393458,23.7389124 C26.7471676,23.5475712 25.8033277,22.4214837 25.8766152,21.0520206 C25.9136902,19.5979349 27.1175987,18.4035852 28.5756028,18.3831699 Z M28.9672125,5.64803995 C44.6814831,6.72483773 57.3108791,19.3882332 58.3447844,35.1044169 C58.40371,35.7830367 58.1408254,36.543336 57.6386983,37.1144494 C57.1397993,37.6823352 56.431918,38.0025322 55.6464215,38.0127353 L55.5406064,38.0118302 C54.1854078,37.9639753 53.1404033,36.9594404 53.0254458,35.622846 C52.5879695,29.1917485 49.8657515,23.1793055 45.3583848,18.6724757 C40.8510181,14.1656458 34.8378589,11.443752 28.4266653,11.0076296 C27.0001027,10.8851917 25.9956888,9.76631723 26.0153032,8.34509173 C26.0369301,6.87849681 27.2641524,5.66711299 28.7531836,5.64705882 L28.9672125,5.64803995 Z" id="Combined-Shape" fill="#FFFFFF"></path>
    </g>
</svg>