<?xml version="1.0" encoding="UTF-8"?>
<svg width="172px" height="40px" viewBox="0 0 172 40" version="1.1" xmlns="http://www.w3.org/2000/svg" xmlns:xlink="http://www.w3.org/1999/xlink">
    <title>B7D1944E-FBA3-4871-A583-2C8DCE4117EF</title>
    <g id="🔤--Typography" stroke="none" stroke-width="1" fill="none" fill-rule="evenodd">
        <g id="Control-Remoto---Home" transform="translate(-727.000000, -721.000000)" fill-rule="nonzero">
            <g id="Group" transform="translate(403.000000, 507.000000)">
                <g id="Group-2" transform="translate(46.000000, 214.000000)">
                    <g id="google" transform="translate(278.000000, 0.000000)">
                        <path d="M7.937936,39.997909 C7.618498,39.997909 7.306818,39.99383 6.989896,39.98672 C6.403753,39.970302 5.708579,39.937676 5.030389,39.816166 C4.390465,39.700722 3.821829,39.51281 3.293556,39.243229 C2.746832,38.966538 2.255461,38.609118 1.828985,38.180174 C1.394855,37.755411 1.038095,37.26728 0.759124,36.719858 C0.487282,36.19199 0.301511,35.625222 0.18986,34.986929 C0.061854,34.283384 0.029145,33.569487 0.015306,33.026247 C0.008701,32.80571 -1.42108547e-14,32.071421 -1.42108547e-14,32.071421 L-1.42108547e-14,7.915194 C-1.42108547e-14,7.915194 0.009226,7.192199 0.015306,6.979818 C0.029145,6.431977 0.061854,5.7187075 0.188811,5.0221688 C0.300987,4.3804246 0.486758,3.8141797 0.7586,3.2841159 C1.037047,2.7357524 1.394331,2.2451114 1.822799,1.8223361 C2.256405,1.389313 2.749872,1.0309526 3.292927,0.7531109 C3.831474,0.4804978 4.399166,0.29405 5.026196,0.1843564 C5.732063,0.0582453 6.447784,0.0265607 6.992412,0.0127575 L7.93846,0 L164.056298,0 L165.013564,0.0132804 C165.551063,0.0265607 166.266679,0.0582453 166.961853,0.1833107 C167.593495,0.2936317 168.164856,0.4810206 168.713573,0.756248 C169.251072,1.0309526 169.74349,1.3894175 170.172483,1.8182579 C170.601476,2.24302 170.960752,2.7362752 171.245384,3.2867301 C171.515653,3.8212904 171.699957,4.3875353 171.806471,5.0109798 C171.928292,5.67071 171.966138,6.348217 171.988678,6.984419 C171.991718,7.28056 171.991718,7.598662 171.991718,7.915194 C172,8.30733 172,8.68054 172,9.056886 L172,30.941964 C172,31.321866 172,31.692565 171.991718,32.066297 C171.991718,32.406358 171.991718,32.717871 171.987629,33.038482 C171.966138,33.654293 171.928292,34.331381 171.808463,34.976681 C171.699957,35.618007 171.515653,36.184775 171.242344,36.722995 C170.959808,37.266234 170.600427,37.757398 170.17762,38.172017 C169.744539,38.609118 169.253063,38.965492 168.710532,39.241242 C168.166848,39.516888 167.611947,39.699676 166.961853,39.816166 C166.290268,39.937676 165.595094,39.970302 165.002241,39.98672 C164.695174,39.99383 164.373639,39.997909 164.061435,39.997909 L162.925003,40 L7.937936,39.997909 Z" id="Path-Copy-3" fill="#111111"></path>
                        <path d="M40,14.895803 L40,9.104197 L40.91019,9.104197 L40.91019,14.131693 L43.668064,14.131693 L43.668064,14.895803 L40,14.895803 Z M45.008719,9.998553 C44.726561,9.998553 44.48081,9.781476 44.48081,9.503618 C44.48081,9.22576 44.726561,9 45.008719,9 C45.29998,9 45.536629,9.22576 45.536629,9.503618 C45.536629,9.781476 45.29998,9.998553 45.008719,9.998553 Z M44.608236,14.895803 L44.608236,10.701881 L45.427407,10.701881 L45.427407,14.895803 L44.608236,14.895803 Z M46.303866,14.34877 L46.695247,13.775687 C46.99561,14.088278 47.578131,14.374819 48.169754,14.374819 C48.788683,14.374819 49.116351,14.131693 49.116351,13.775687 C49.116351,13.3589 48.615747,13.219971 48.05143,13.098408 C47.305074,12.93343 46.431292,12.742402 46.431292,11.839363 C46.431292,11.170767 47.032017,10.597685 48.106041,10.597685 C48.861498,10.597685 49.407612,10.858177 49.78079,11.196816 L49.416714,11.743849 C49.161861,11.448625 48.670358,11.231548 48.115143,11.231548 C47.559927,11.231548 47.214055,11.439942 47.214055,11.778582 C47.214055,12.143271 47.687354,12.264834 48.233467,12.386397 C48.998027,12.551375 49.908216,12.751085 49.908216,13.714906 C49.908216,14.435601 49.289287,15 48.133347,15 C47.396093,15 46.749859,14.782923 46.303866,14.34877 Z M52.113552,15 C51.421808,15 51.066834,14.626628 51.066834,13.966715 L51.066834,11.387844 L50.338682,11.387844 L50.338682,10.701881 L51.066834,10.701881 L51.066834,9.555716 L51.886004,9.555716 L51.886004,10.701881 L52.77799,10.701881 L52.77799,11.387844 L51.886004,11.387844 L51.886004,13.793054 C51.886004,14.088278 52.031635,14.305355 52.313794,14.305355 C52.504933,14.305355 52.677869,14.227207 52.759786,14.140376 L52.96913,14.730825 C52.796194,14.88712 52.541341,15 52.113552,15 Z M53.37229,12.794501 C53.37229,11.578871 54.291582,10.597685 55.574949,10.597685 C56.894724,10.597685 57.713895,11.578871 57.713895,12.863965 L57.713895,13.054993 L54.236971,13.054993 C54.300684,13.767004 54.846798,14.357453 55.729681,14.357453 C56.193878,14.357453 56.703584,14.183792 57.031252,13.862518 L57.413532,14.374819 C56.976641,14.782923 56.357712,15 55.647764,15 C54.337091,15 53.37229,14.114327 53.37229,12.794501 Z M55.574949,11.240232 C54.692065,11.240232 54.273378,11.917511 54.227869,12.490593 L56.912928,12.490593 C56.894724,11.934877 56.503342,11.240232 55.574949,11.240232 Z M61.666794,14.895803 L61.666794,12.212735 C61.666794,11.51809 61.293616,11.29233 60.729299,11.29233 C60.219593,11.29233 59.755396,11.587554 59.518747,11.900145 L59.518747,14.895803 L58.699576,14.895803 L58.699576,10.701881 L59.518747,10.701881 L59.518747,11.29233 C59.810007,10.95369 60.392529,10.597685 61.075171,10.597685 C62.003564,10.597685 62.485965,11.06657 62.485965,11.952243 L62.485965,14.895803 L61.666794,14.895803 Z M67.997965,15 C66.632681,15 65.777103,14.01013 65.777103,12.794501 C65.777103,11.587554 66.632681,10.597685 67.997965,10.597685 C69.372352,10.597685 70.218828,11.587554 70.218828,12.794501 C70.218828,14.01013 69.372352,15 67.997965,15 Z M67.997965,14.305355 C68.880849,14.305355 69.36325,13.593343 69.36325,12.794501 C69.36325,12.004342 68.880849,11.29233 67.997965,11.29233 C67.124184,11.29233 66.632681,12.004342 66.632681,12.794501 C66.632681,13.593343 67.124184,14.305355 67.997965,14.305355 Z M74.180829,14.895803 L74.180829,12.212735 C74.180829,11.51809 73.807652,11.29233 73.243334,11.29233 C72.733628,11.29233 72.269431,11.587554 72.032782,11.900145 L72.032782,14.895803 L71.213612,14.895803 L71.213612,10.701881 L72.032782,10.701881 L72.032782,11.29233 C72.324043,10.95369 72.906564,10.597685 73.589206,10.597685 C74.5176,10.597685 75,11.06657 75,11.952243 L75,14.895803 L74.180829,14.895803 Z" id="Listenon-Copy-3" fill="#FFFFFF"></path>
                        <g id="_logo_Podcasts_192px" transform="translate(9.000000, 7.000000)">
                            <polygon id="Shape" fill="#FAB908" points="10.9375 7.95454545 10.9375 11.7428977 10.9375 13.2571023 10.9375 17.0454545 14.0625 17.0454545 14.0625 13.2571023 14.0625 11.7428977 14.0625 7.95454545"></polygon>
                            <circle id="Oval" fill="#0066D9" cx="1.5625" cy="11.6477273" r="1.5625"></circle>
                            <circle id="Oval" fill="#0066D9" cx="1.5625" cy="13.3522727" r="1.5625"></circle>
                            <rect id="Rectangle-path" fill="#0066D9" x="0" y="11.6477273" width="3.125" height="1.70454545"></rect>
                            <circle id="Oval" fill="#4285F4" cx="23.4375" cy="13.3522727" r="1.5625"></circle>
                            <circle id="Oval" fill="#4285F4" cx="23.4375" cy="11.6477273" r="1.5625"></circle>
                            <rect id="Rectangle-path" fill="#4285F4" transform="translate(23.437500, 12.500000) rotate(180.000000) translate(-23.437500, -12.500000) " x="21.875" y="11.6477273" width="3.125" height="1.70454545"></rect>
                            <circle id="Oval" fill="#EA4335" cx="6.96022727" cy="16.7613636" r="1.5625"></circle>
                            <circle id="Oval" fill="#EA4335" cx="6.96022727" cy="18.4659091" r="1.5625"></circle>
                            <rect id="Rectangle-path" fill="#EA4335" x="5.39772727" y="16.7613636" width="3.125" height="1.70454545"></rect>
                            <circle id="Oval" fill="#EA4335" cx="6.96022727" cy="6.53409091" r="1.5625"></circle>
                            <circle id="Oval" fill="#EA4335" cx="6.96022727" cy="12.0738636" r="1.5625"></circle>
                            <rect id="Rectangle-path" fill="#EA4335" x="5.39772727" y="6.53409091" width="3.125" height="5.57528409"></rect>
                            <circle id="Oval" fill="#34A853" cx="18.0397727" cy="8.23863636" r="1.5625"></circle>
                            <circle id="Oval" fill="#34A853" cx="18.0397727" cy="6.53409091" r="1.5625"></circle>
                            <rect id="Rectangle-path" fill="#34A853" transform="translate(18.039773, 7.386364) rotate(180.000000) translate(-18.039773, -7.386364) " x="16.4772733" y="6.53409164" width="3.125" height="1.70454545"></rect>
                            <circle id="Oval" fill="#FAB908" cx="12.5" cy="3.26704545" r="1.5625"></circle>
                            <circle id="Oval" fill="#FAB908" cx="12.5" cy="1.5625" r="1.5625"></circle>
                            <rect id="Rectangle-path" fill="#FAB908" transform="translate(12.500000, 2.414773) rotate(180.000000) translate(-12.500000, -2.414773) " x="10.9375" y="1.56250055" width="3.125" height="1.70454545"></rect>
                            <circle id="Oval" fill="#FAB908" cx="12.5" cy="23.4375" r="1.5625"></circle>
                            <circle id="Oval" fill="#FAB908" cx="12.5" cy="21.7329545" r="1.5625"></circle>
                            <rect id="Rectangle-path" fill="#FAB908" transform="translate(12.500000, 22.585227) rotate(180.000000) translate(-12.500000, -22.585227) " x="10.9375" y="21.7329541" width="3.125" height="1.70454545"></rect>
                            <circle id="Oval" fill="#34A853" cx="18.0397727" cy="18.4659091" r="1.5625"></circle>
                            <circle id="Oval" fill="#34A853" cx="18.0397727" cy="12.9261364" r="1.5625"></circle>
                            <rect id="Rectangle-path" fill="#34A853" transform="translate(18.039773, 15.696023) rotate(180.000000) translate(-18.039773, -15.696023) " x="16.4772733" y="12.9261369" width="3.125" height="5.53977273"></rect>
                            <circle id="Oval" fill="#FAB908" cx="12.5" cy="7.95454545" r="1.5625"></circle>
                            <circle id="Oval" fill="#FAB908" cx="12.5" cy="17.0454545" r="1.5625"></circle>
                        </g>
                        <path d="M50.729319,25.980676 C50.729319,29.128824 48.81544,31.004831 45.575932,31.004831 C42.154149,31.004831 40,28.677939 40,24.950081 C40,21.286634 42.145864,19 45.551076,19 C48.210621,19 50.223922,20.529791 50.638182,22.848631 L48.732588,22.848631 C48.285188,21.407407 47.116977,20.5781 45.559361,20.5781 C43.272649,20.5781 41.897308,22.204509 41.897308,24.933977 C41.897308,27.711755 43.314075,29.426731 45.592502,29.426731 C47.531236,29.426731 48.873437,28.219002 48.898292,26.455717 L48.898292,26.254428 L45.807917,26.254428 L45.807917,24.797101 L50.729319,24.797101 L50.729319,25.980676 Z M55.993415,30.972625 C53.499574,30.972625 51.859106,29.305958 51.859106,26.57649 C51.859106,23.855072 53.507859,22.188406 55.993415,22.188406 C58.478972,22.188406 60.127724,23.855072 60.127724,26.57649 C60.127724,29.305958 58.487257,30.972625 55.993415,30.972625 Z M55.993415,29.539452 C57.401897,29.539452 58.304983,28.460548 58.304983,26.57649 C58.304983,24.700483 57.393612,23.621578 55.993415,23.621578 C54.593219,23.621578 53.681848,24.700483 53.681848,26.57649 C53.681848,28.460548 54.593219,29.539452 55.993415,29.539452 Z M65.176406,30.972625 C62.682564,30.972625 61.042097,29.305958 61.042097,26.57649 C61.042097,23.855072 62.69085,22.188406 65.176406,22.188406 C67.661962,22.188406 69.310715,23.855072 69.310715,26.57649 C69.310715,29.305958 67.670248,30.972625 65.176406,30.972625 Z M65.176406,29.539452 C66.584888,29.539452 67.487973,28.460548 67.487973,26.57649 C67.487973,24.700483 66.576603,23.621578 65.176406,23.621578 C63.776209,23.621578 62.864838,24.700483 62.864838,26.57649 C62.864838,28.460548 63.776209,29.539452 65.176406,29.539452 Z M74.326256,29.402576 C75.726453,29.402576 76.646109,28.299517 76.646109,26.552335 C76.646109,24.813205 75.726453,23.669887 74.326256,23.669887 C72.950915,23.669887 72.056114,24.78905 72.056114,26.552335 C72.056114,28.323671 72.950915,29.402576 74.326256,29.402576 Z M74.342826,34 C72.2881,34 70.763625,32.937198 70.539925,31.47182 L72.337811,31.47182 C72.594652,32.180354 73.39003,32.647343 74.409108,32.647343 C75.809305,32.647343 76.637823,31.874396 76.637823,30.714976 L76.637823,29.322061 L76.604683,29.322061 C76.115856,30.239936 75.088493,30.8438 73.845715,30.8438 C71.658425,30.8438 70.225088,29.185185 70.225088,26.544283 C70.225088,23.879227 71.65014,22.204509 73.887141,22.204509 C75.121634,22.204509 76.132427,22.808374 76.662679,23.79066 L76.69582,23.79066 L76.69582,22.341385 L78.435709,22.341385 L78.435709,30.658615 C78.435709,32.679549 76.828383,34 74.342826,34 Z M80.186886,30.811594 L80.186886,19.193237 L81.976487,19.193237 L81.976487,30.811594 L80.186886,30.811594 Z M87.381432,23.589372 C86.130368,23.589372 85.252138,24.515298 85.161001,25.795491 L89.51901,25.795491 C89.477584,24.499195 88.632495,23.589372 87.381432,23.589372 Z M89.510725,28.323671 L91.209188,28.323671 C90.960633,29.869565 89.452729,30.972625 87.455998,30.972625 C84.895875,30.972625 83.346545,29.289855 83.346545,26.616747 C83.346545,23.959742 84.920731,22.188406 87.381432,22.188406 C89.800706,22.188406 91.308611,23.847021 91.308611,26.415459 L91.308611,27.011272 L85.152716,27.011272 L85.152716,27.115942 C85.152716,28.589372 86.064087,29.563607 87.497424,29.563607 C88.516502,29.563607 89.270454,29.064412 89.510725,28.323671 Z M96.186306,19.193237 L100.668592,19.193237 C102.988445,19.193237 104.604057,20.747182 104.604057,23.009662 C104.604057,25.280193 102.955304,26.84219 100.610596,26.84219 L98.042188,26.84219 L98.042188,30.811594 L96.186306,30.811594 L96.186306,19.193237 Z M98.042188,20.714976 L98.042188,25.328502 L100.171481,25.328502 C101.787093,25.328502 102.706749,24.483092 102.706749,23.017713 C102.706749,21.552335 101.787093,20.714976 100.179766,20.714976 L98.042188,20.714976 Z M109.304761,30.972625 C106.810919,30.972625 105.170452,29.305958 105.170452,26.57649 C105.170452,23.855072 106.819204,22.188406 109.304761,22.188406 C111.790317,22.188406 113.43907,23.855072 113.43907,26.57649 C113.43907,29.305958 111.798602,30.972625 109.304761,30.972625 Z M109.304761,29.539452 C110.713243,29.539452 111.616328,28.460548 111.616328,26.57649 C111.616328,24.700483 110.704957,23.621578 109.304761,23.621578 C107.904564,23.621578 106.993193,24.700483 106.993193,26.57649 C106.993193,28.460548 107.904564,29.539452 109.304761,29.539452 Z M118.015496,30.956522 C115.811636,30.956522 114.353442,29.249597 114.353442,26.57649 C114.353442,23.903382 115.811636,22.204509 117.998925,22.204509 C119.249989,22.204509 120.244211,22.816425 120.733037,23.750403 L120.766178,23.750403 L120.766178,19.193237 L122.564064,19.193237 L122.564064,30.811594 L120.824174,30.811594 L120.824174,29.37037 L120.791034,29.37037 C120.277352,30.336554 119.283129,30.956522 118.015496,30.956522 Z M118.487751,23.669887 C117.070984,23.669887 116.184469,24.797101 116.184469,26.57649 C116.184469,28.363929 117.070984,29.483092 118.487751,29.483092 C119.863093,29.483092 120.782748,28.347826 120.782748,26.57649 C120.782748,24.821256 119.863093,23.669887 118.487751,23.669887 Z M131.796766,25.256039 L130.090017,25.256039 C129.907743,24.354267 129.211787,23.637681 128.043575,23.637681 C126.659949,23.637681 125.748578,24.756844 125.748578,26.57649 C125.748578,28.436393 126.668234,29.515298 128.060146,29.515298 C129.162076,29.515298 129.882887,28.927536 130.090017,27.94525 L131.813336,27.94525 C131.622777,29.748792 130.139728,30.972625 128.043575,30.972625 C125.549734,30.972625 123.925837,29.31401 123.925837,26.57649 C123.925837,23.887279 125.549734,22.188406 128.027005,22.188406 C130.272291,22.188406 131.639347,23.589372 131.796766,25.256039 Z M136.050069,29.57971 C137.301133,29.57971 138.278785,28.742351 138.278785,27.639291 L138.278785,26.971014 L136.132921,27.099839 C135.064132,27.172303 134.459313,27.63124 134.459313,28.355878 C134.459313,29.096618 135.088988,29.57971 136.050069,29.57971 Z M135.552958,30.956522 C133.846209,30.956522 132.653142,29.925926 132.653142,28.404187 C132.653142,26.922705 133.821354,26.012882 135.892651,25.900161 L138.278785,25.763285 L138.278785,25.111111 C138.278785,24.169082 137.624255,23.605475 136.53061,23.605475 C135.494962,23.605475 134.848717,24.088567 134.691299,24.845411 L133.00112,24.845411 C133.100542,23.31562 134.442743,22.188406 136.596892,22.188406 C138.709615,22.188406 140.0601,23.275362 140.0601,24.974235 L140.0601,30.811594 L138.345067,30.811594 L138.345067,29.41868 L138.303641,29.41868 C137.798244,30.360709 136.696314,30.956522 135.552958,30.956522 Z M141.554436,24.740741 C141.554436,23.227053 142.913207,22.188406 144.918223,22.188406 C146.948094,22.188406 148.265439,23.283414 148.323435,24.845411 L146.641542,24.845411 C146.54212,24.024155 145.920731,23.508857 144.918223,23.508857 C143.948856,23.508857 143.302611,23.967794 143.302611,24.644122 C143.302611,25.175523 143.7003,25.537842 144.644812,25.747182 L146.061579,26.061192 C147.842894,26.463768 148.52228,27.140097 148.52228,28.363929 C148.52228,29.909823 147.039231,30.972625 144.984504,30.972625 C142.8055,30.972625 141.49644,29.933977 141.330736,28.323671 L143.103767,28.323671 C143.26947,29.20934 143.89086,29.644122 144.984504,29.644122 C146.061579,29.644122 146.724394,29.20934 146.724394,28.516908 C146.724394,27.969404 146.401272,27.647343 145.448475,27.438003 L144.031708,27.115942 C142.37467,26.745572 141.554436,25.972625 141.554436,24.740741 Z M150.348023,20.336554 L152.145909,20.336554 L152.145909,22.341385 L153.802947,22.341385 L153.802947,23.718196 L152.145909,23.718196 L152.145909,28.388084 C152.145909,29.120773 152.477317,29.450886 153.206413,29.450886 C153.388687,29.450886 153.678669,29.434783 153.794662,29.410628 L153.794662,30.78744 C153.595817,30.835749 153.198128,30.867955 152.800439,30.867955 C151.035694,30.867955 150.348023,30.215781 150.348023,28.58132 L150.348023,23.718196 L149.080389,23.718196 L149.080389,22.341385 L150.348023,22.341385 L150.348023,20.336554 Z M155.032157,24.740741 C155.032157,23.227053 156.390928,22.188406 158.395943,22.188406 C160.425814,22.188406 161.743159,23.283414 161.801155,24.845411 L160.119262,24.845411 C160.01984,24.024155 159.398451,23.508857 158.395943,23.508857 C157.426576,23.508857 156.780331,23.967794 156.780331,24.644122 C156.780331,25.175523 157.17802,25.537842 158.122532,25.747182 L159.539299,26.061192 C161.320615,26.463768 162,27.140097 162,28.363929 C162,29.909823 160.516951,30.972625 158.462225,30.972625 C156.28322,30.972625 154.97416,29.933977 154.808457,28.323671 L156.581487,28.323671 C156.747191,29.20934 157.36858,29.644122 158.462225,29.644122 C159.539299,29.644122 160.202114,29.20934 160.202114,28.516908 C160.202114,27.969404 159.878992,27.647343 158.926195,27.438003 L157.509428,27.115942 C155.85239,26.745572 155.032157,25.972625 155.032157,24.740741 Z" id="GooglePodcasts" fill="#FFFFFF"></path>
                    </g>
                </g>
            </g>
        </g>
    </g>
</svg>