<?xml version="1.0" encoding="UTF-8"?>
<svg width="397px" height="318px" viewBox="0 0 397 318" version="1.1" xmlns="http://www.w3.org/2000/svg" xmlns:xlink="http://www.w3.org/1999/xlink">
    <title>299FD01F-5A24-49A1-8DB7-A69A1A49D76A</title>
    <defs>
        <polygon id="path-1" points="0.519330496 0.0859234043 108.138621 0.0859234043 108.138621 76.8439716 0.519330496 76.8439716"></polygon>
    </defs>
    <g id="🔤--Typography" stroke="none" stroke-width="1" fill="none" fill-rule="evenodd">
        <g id="Control-Remoto---Home" transform="translate(-805.000000, -154.000000)">
            <g id="Group-14-Copy" transform="translate(808.000000, 157.000000)">
                <path d="M359.994034,-1.5 C368.926702,-1.5 377.013529,2.12021193 382.867157,7.97357551 C388.720678,13.8268328 392.341098,21.9131702 392.341098,30.8456738 L392.341098,30.8456738 L392.341098,158.729418 C392.341098,167.661922 388.720678,175.748259 382.867157,181.601517 C377.013529,187.45488 368.926702,191.075092 359.994034,191.075092 L359.994034,191.075092 L197.343226,191.075092 C188.411728,191.075092 180.325012,187.454688 174.471322,181.600998 C168.618106,175.747782 164.997552,167.661654 164.997552,158.729418 L164.997552,158.729418 L164.997552,30.8456738 C164.997552,21.9134386 168.618106,13.8273103 174.471322,7.97409397 C180.325012,2.12040403 188.411728,-1.5 197.343226,-1.5 L197.343226,-1.5 Z" id="Stroke-1" stroke="#FFFFFF" stroke-width="3" fill-opacity="0.8" fill="#26282D"></path>
                <line x1="166.497552" y1="43.6033277" x2="390.841098" y2="43.6033277" id="Stroke-3" stroke="#FFFFFF" stroke-width="3"></line>
                <path d="M180.208238,24.0676879 C180.208238,20.7051064 182.934167,17.9805674 186.295359,17.9805674 C189.65794,17.9805674 192.382479,20.7051064 192.382479,24.0676879 C192.382479,27.4288794 189.65794,30.1548085 186.295359,30.1548085 C182.934167,30.1548085 180.208238,27.4288794 180.208238,24.0676879 Z" id="Stroke-5" stroke="#FFFFFF" stroke-width="3"></path>
                <path d="M198.382479,24.0676879 C198.382479,20.7051064 201.107018,17.9805674 204.4696,17.9805674 C207.830791,17.9805674 210.556721,20.7051064 210.556721,24.0676879 C210.556721,27.4288794 207.830791,30.1548085 204.4696,30.1548085 C201.107018,30.1548085 198.382479,27.4288794 198.382479,24.0676879 Z" id="Stroke-7" stroke="#FFFFFF" stroke-width="3"></path>
                <path d="M216.556721,24.0676879 C216.556721,20.7051064 219.28265,17.9805674 222.643841,17.9805674 C226.006423,17.9805674 228.730962,20.7051064 228.730962,24.0676879 C228.730962,27.4288794 226.006423,30.1548085 222.643841,30.1548085 C219.28265,30.1548085 216.556721,27.4288794 216.556721,24.0676879 Z" id="Stroke-9" stroke="#FFFFFF" stroke-width="3"></path>
                <path d="M303.805143,215.73998 C303.824604,215.991583 303.834335,216.245966 303.834335,216.504519 C303.834335,221.902165 299.458391,226.278108 294.060746,226.278108 C293.611753,226.278108 291.238902,226.336491 290.892774,226.278108 C284.551271,230.861172 279.330165,237.591895 274.382902,249.403328 C273.600292,251.922136 269.785938,248.804207 270.678363,245.989313 C269.977767,249.528434 269.612179,251.430051 267.344973,251.125626 C266.177313,250.904604 265.572633,249.786987 265.536491,247.775555 L265.259867,247.824207 C264.131129,249.996888 260.772718,249.25181 260.829711,246.174193 C263.976831,223.908037 273.591952,208.383725 289.673682,199.606817 C304.117909,200.236519 308.82886,205.614704 303.805143,215.73998" id="Fill-21" fill="#FFD6CD"></path>
                <path d="M275.346814,230.79726 C275.537727,230.464245 275.962455,230.34905 276.295469,230.539963 C276.628484,230.730876 276.74368,231.155604 276.552766,231.488618 C274.800722,234.544749 273.550649,238.170091 272.265655,243.150534 L271.8971,244.61107 C271.804997,244.983714 271.428246,245.211139 271.055602,245.119036 C270.682957,245.026934 270.455533,244.650183 270.547635,244.277538 L270.924059,242.785905 C270.986569,242.543663 271.049007,242.304541 271.111435,242.068448 L271.486394,240.687482 C272.613938,236.649153 273.779017,233.532003 275.346814,230.79726 Z" id="Stroke-23" fill="#FF8A8A" fill-rule="nonzero"></path>
                <path d="M193.496482,64.5 C202.428602,64.5 210.515585,68.1203408 216.369425,73.9739171 C222.222922,79.8271503 225.843546,87.9133502 225.843546,96.8456738 L225.843546,96.8456738 L225.843546,224.729418 C225.843546,233.661193 222.222794,241.747549 216.369084,247.600995 C210.515268,253.454548 202.428422,257.075092 193.496482,257.075092 L193.496482,257.075092 L30.8456738,257.075092 C21.9132585,257.075092 13.8269927,253.454742 7.97375234,247.601502 C2.12027517,241.748025 -1.5,233.661465 -1.5,224.729418 L-1.5,224.729418 L-1.5,96.8456738 C-1.5,87.9130785 2.12014632,79.8266752 7.97341075,73.9734108 C13.8266752,68.1201463 21.9130785,64.5 30.8456738,64.5 L30.8456738,64.5 Z" id="Stroke-11" stroke="#FFFFFF" stroke-width="3" fill-opacity="0.8" fill="#26282D"></path>
                <line x1="3.12638804e-13" y1="109.603328" x2="224.343546" y2="109.603328" id="Stroke-13" stroke="#FFFFFF" stroke-width="3"></line>
                <path d="M270.806698,228.32165 C271.165605,228.457784 271.346199,228.859093 271.210066,229.218 L270.668836,230.661469 L270.158691,232.05605 C270.076257,232.284402 269.995119,232.510714 269.915277,232.734985 L269.451769,234.0561 C269.377109,234.272199 269.303745,234.486254 269.231677,234.698262 L268.814821,235.945753 L268.429072,237.144073 L268.074437,238.29315 L267.750921,239.392914 C267.699596,239.572095 267.649567,239.749218 267.600835,239.924282 L267.32401,240.949944 L267.07832,241.926116 C266.771491,243.194653 266.547702,244.331029 266.407016,245.334488 C266.353721,245.714627 266.002352,245.979586 265.622212,245.92629 C265.242072,245.872994 264.977113,245.521626 265.030409,245.141486 C265.15773,244.233352 265.349157,243.225682 265.604644,242.118413 L265.839319,241.144932 L266.105365,240.122658 L266.402773,239.051582 L266.731538,237.931695 L267.091654,236.762988 L267.483114,235.545452 C267.550969,235.33846 267.62013,235.129433 267.690596,234.91837 L268.12906,233.627574 C268.204748,233.40837 268.281741,233.187131 268.36004,232.963857 L268.845493,231.599779 L269.362265,230.186836 L269.910348,228.725018 C270.046482,228.366111 270.447791,228.185517 270.806698,228.32165 Z" id="Stroke-25" fill="#FF8A8A" fill-rule="nonzero"></path>
                <path d="M272.819072,189.575648 L278.553115,149.737606 C262.19476,159.183138 251.189569,162.658315 245.53893,160.163138 C222.081484,172.847535 206.366732,139.654031 218.953824,114.464556 L217.563753,104.560301 L243.627583,96.7411518 L243.801342,107.514201 C248.637399,109.732755 250.953257,113.55684 250.751696,118.982287 C254.085087,117.936953 257.269739,118.690372 260.308434,121.241152 C279.310704,106.036556 292.401001,98.4481589 299.577938,98.4787404 C299.049711,95.3232794 300.2132,93.0449532 303.067016,91.6423716 L334.262987,80.6524709 C365.09615,80.2924426 375.46747,90.0924426 364.587384,110.127535 C364.802845,110.475052 365.007186,110.830911 365.197626,111.195109 C365.586845,111.940187 365.919072,112.717237 366.187356,113.524868 C370.630023,124.588443 373.390704,139.961237 374.468009,159.641861 C374.858618,165.462088 376.85754,172.412443 374.120491,180.145407 C369.081484,212.638315 328.421909,222.890088 312.088576,210.900726 L303.574391,215.939733 L289.673682,199.6064 L301.489285,193.351081 C302.289966,192.049974 303.281087,190.762769 304.458477,189.485294 L272.819072,189.575648 Z" id="Fill-27" fill="#6A1B31"></path>
                <path d="M334.417841,85.7942043 C363.39526,85.9540624 365.006352,93.2241333 337.765132,102.825353 L334.417841,85.7942043 Z" id="Fill-29" fill="#330E17"></path>
                <path d="M302.605095,102.475055 C303.145833,101.531197 303.700471,100.60402 304.26901,99.6949135 L308.439223,74.1523603 L332.417946,68.7658355 L337.748868,103.104757 C319.113577,113.316218 308.931308,109.932786 302.605095,102.475055" id="Fill-31" fill="#FFD6CD"></path>
                <path d="M339.273637,106.904516 C342.28175,103.84914 346.468644,101.953084 351.09758,101.953084 C356.299226,101.953084 360.942062,104.348176 363.983538,108.091637 C364.567367,108.811694 363.488672,109.688828 362.904843,108.968772 C360.11636,105.536687 355.862743,103.343155 351.09758,103.343155 C346.856474,103.343155 343.022658,105.077963 340.264757,107.878956 C339.612814,108.54063 338.623084,107.5648 339.273637,106.904516" id="Fill-33" fill="#330E17"></path>
                <path d="M304.895098,95.8606809 L308.439779,74.1519433 L320.969878,71.3370496 L323.513708,74.3131915 C322.297396,85.4337589 314.278077,93.7199716 304.895098,95.8606809" id="Fill-43" fill="#F79E8B"></path>
                <path d="M286.437319,76.8292199 C286.437319,76.420539 286.454,76.0160284 286.485972,75.6156879 C286.861291,62.5518014 290.857745,54.1279716 293.669858,39.4001702 L327.986539,39.0957447 L327.905915,59.6062411 C328.161688,59.5728794 328.418851,59.5561986 328.682965,59.5561986 C331.994113,59.5561986 334.67695,62.2404255 334.67695,65.5515745 C334.67695,66.4453901 334.47956,67.2961135 334.129262,68.0592624 C332.366652,72.6312057 330.15644,75.6142979 327.498624,77.0113191 C326.857801,77.4491915 326.098823,77.7285957 325.280071,77.7897589 L324.946454,77.8008794 C323.49939,77.8008794 322.209404,77.1197447 321.383702,76.0605106 C318.877404,80.2126525 315.669121,84.025617 311.760241,87.5021844 C311.312638,87.9400567 310.837234,88.3487376 310.335418,88.728227 C307.837461,90.6201135 304.723702,91.7405106 301.34861,91.7405106 C293.376553,91.7405106 286.866851,85.4824113 286.45817,77.6132199 L286.437319,76.8292199 Z" id="Fill-45" fill="#FFD6CD"></path>
                <path d="M312.539237,70.3485702 C312.858953,71.3188397 313.031322,72.3558326 313.031322,73.4345277 C313.031322,78.8794355 308.616457,83.2943007 303.170159,83.2943007 C297.953223,83.2943007 293.681535,79.242244 293.332627,74.1128823 L312.539237,70.3485702 Z" id="Fill-47" fill="#FFFFFF"></path>
                <path d="M309.37627,58.0735489 C310.429943,51.7556766 317.22461,52.1796482 317.22461,58.4405277 C317.22461,59.8305986 315.139504,59.8305986 315.139504,58.4405277 C315.139504,55.0584851 312.118879,54.3092369 311.433574,58.4168965 C311.204213,59.7875064 309.148298,59.4441589 309.37627,58.0735489" id="Fill-49" fill="#111111"></path>
                <path d="M293.971365,57.3573844 C295.697833,51.3383773 302.068528,51.6831149 301.306769,57.7744057 C301.1344,59.153356 299.065974,58.8948028 299.238343,57.5158525 C299.710967,53.7348596 296.869662,54.8163348 295.974457,57.9328738 C295.592187,59.2687319 293.587705,58.6932426 293.971365,57.3573844" id="Fill-51" fill="#111111"></path>
                <path d="M301.836803,59.5566156 C298.176746,61.9781191 295.774704,64.3537504 294.626505,66.6807291 L301.663044,67.6357078 L301.836803,59.5566156 Z" id="Fill-53" fill="#F79E8B"></path>
                <path d="M323.200942,63.1199234 C326.676119,53.1294837 327.522672,45.5563773 321.645452,43.0055972 C319.182247,43.7701362 316.806616,45.3047745 314.521339,47.6109021 C314.5408,45.7926894 314.946701,44.1704766 315.737651,42.7456539 C312.828233,44.2636113 310.309424,46.2333418 308.178445,48.6534553 C307.929623,46.3306468 308.65385,43.6658809 310.351126,40.6605475 C306.014105,41.9157816 302.566729,44.0884624 300.011779,47.1758099 C299.45436,45.4590723 299.686502,43.5199234 300.706814,41.355583 L289.673821,47.9584199 C290.62602,45.4187603 289.597367,44.4053986 291.542077,42.2535688 C287.224516,43.022278 286.080488,43.5421645 283.330928,46.3070156 C283.347609,43.1751858 284.833594,39.8000936 288.061339,37.1978809 C285.065736,35.9954695 283.464374,35.8092 280.550786,35.6215404 C282.79019,34.0813418 285.714899,33.4154979 289.326304,33.6226184 C288.845339,30.4073844 286.731041,27.7718099 282.98341,25.7172851 C287.266218,23.9935972 295.838786,23.9352142 308.699722,25.5435262 C308.584346,24.3577957 307.976885,23.0261078 306.875949,21.5470723 C311.283864,22.5951858 315.251126,24.5065333 318.777736,27.2811149 C318.824999,26.0078099 318.534474,24.676122 317.908942,23.284661 C321.304885,24.4412 324.317169,27.2213418 326.944403,31.6250865 C327.451779,30.5311007 327.537963,29.1994128 327.205736,27.6286326 C330.869963,30.0765475 333.794672,34.3343348 335.979864,40.3992142 C337.839779,39.5901929 339.897084,38.3738809 342.148999,36.750278 L334.293708,63.4368596 C333.438814,61.1668738 331.249452,59.5571716 328.681991,59.5571716 C326.238247,59.5571716 324.133679,61.0209163 323.200942,63.1199234" id="Fill-55" fill="#111111"></path>
                <path d="M333.512488,171.506116 C335.457197,170.710996 335.763013,170.612301 337.647949,169.922826 L339.015779,129.620499 C339.04636,128.694712 340.436431,128.741974 340.40585,129.667762 L339.004658,170.905606 C337.337963,171.518627 335.683779,172.119138 334.037935,172.793322 C333.180261,173.14362 332.654814,171.856414 333.512488,171.506116" id="Fill-57" fill="#330E17"></path>
                <path d="M287.064519,189.54173 C285.180973,153.584766 290.361767,123.821957 302.605512,102.474638 C308.930335,109.932369 319.113994,113.315801 337.749285,103.10434 L331.853994,172.920652 C318.929115,178.202922 309.829711,183.829929 304.52798,189.575092 L287.064519,189.54173 Z" id="Fill-59" fill="#111111"></path>
                <path d="M332.321892,73.2550695 C330.969353,75.2275801 329.555651,76.7052255 327.856984,77.6073816 C327.224502,78.0341333 326.491935,78.3260482 325.700984,78.4414241 C324.783538,78.5748709 324.584757,77.2000908 325.500814,77.0652539 C326.102715,76.9790695 326.637892,76.7580482 327.138318,76.4147007 C328.841155,75.5208851 330.110289,74.0223887 331.175084,72.4682894 C331.69914,71.7051404 332.844559,72.4905305 332.321892,73.2550695" id="Fill-94" fill="#F79E8B"></path>
                <g id="Group-15" transform="translate(206.518806, 39.092826)">
                    <path d="M15.189305,63.9224113 C11.4402837,63.1828936 8.61287943,59.877305 8.61287943,55.9100426 C8.61287943,54.5185816 8.88116312,53.2091348 9.56229787,52.0637163 C4.3217305,51.0142128 1.20102128,48.0491915 0.243262411,43.3007092 C0.0847943262,42.7627518 3.62376795e-13,42.1928227 3.62376795e-13,41.6034326 C3.62376795e-13,39.2875745 1.30805674,37.2775319 3.24164539,36.2780709 C2.22133333,31.7631206 4.78740426,27.1522553 9.56507801,26.5670355 C10.4394326,23.4282553 13.1542411,21.2041418 16.7795461,21.6795461 C16.9880567,21.7073475 17.1812766,21.6990071 17.4745816,21.7212482 L27.3788369,23.5908936 L28.2476312,4.32451064 C28.2476312,1.93636879 30.1826099,0 32.5707518,0 C34.9588936,0 36.8938723,1.93636879 36.8938723,4.32451064 C36.8938723,4.50243972 36.8827518,4.67897872 36.8632908,4.85273759 L35.848539,58.0257305 L15.189305,63.9224113 Z" id="Fill-35" fill="#FFD6CD"></path>
                    <path d="M30.0958695,33.1562496 C22.8772312,25.7819234 19.286678,25.2564766 17.7464794,28.203427 C16.0575433,31.6869447 21.598366,36.9942355 23.0565504,38.3829163 C20.7045504,45.138661 22.2086071,49.9955688 28.5834723,53.5207887 C29.3938837,53.9697816 28.7224794,55.1860936 27.910678,54.7371007 C21.3717844,51.1215262 19.187983,45.7308312 21.4524085,38.7735262 C17.7117277,35.1245901 14.9107348,30.8681929 16.5051461,27.5792851 C19.0434156,22.7209872 24.4299404,25.381583 31.0897702,32.1832 C31.7375433,32.8462638 30.7450326,33.8193135 30.0958695,33.1562496" id="Fill-37" fill="#F79E8B"></path>
                    <path d="M14.758939,45.9974468 C8.75105248,45.0424681 5.06041418,42.1302695 3.37981844,38.728766 C2.97113759,37.8975035 4.21664113,37.2830922 4.62671206,38.1143546 C6.07099574,41.0390638 9.32654184,43.7260709 14.9757901,44.6240567 C15.8904567,44.7700142 15.6736057,46.1434043 14.758939,45.9974468" id="Fill-39" fill="#F79E8B"></path>
                    <path d="M18.5274213,40.7032227 C11.8203291,38.1149106 8.83862695,33.5526979 8.58841418,29.3783149 C8.53281135,28.4525277 9.92010213,28.3691234 9.97570496,29.2935206 C10.1869957,32.8187404 12.7183149,36.9722723 19.0264567,39.4062865 C19.8910809,39.7399035 19.3906553,41.0368397 18.5274213,40.7032227" id="Fill-41" fill="#F79E8B"></path>
                </g>
                <path d="M12.3204766,90.0676879 C12.3204766,86.7064965 15.0464057,83.9805674 18.4075972,83.9805674 C21.7701787,83.9805674 24.4947177,86.7064965 24.4947177,90.0676879 C24.4947177,93.4288794 21.7701787,96.1548085 18.4075972,96.1548085 C15.0464057,96.1548085 12.3204766,93.4288794 12.3204766,90.0676879 Z" id="Stroke-15" stroke="#FFFFFF" stroke-width="3"></path>
                <path d="M30.4947177,90.0676879 C30.4947177,86.7064965 33.2206468,83.9805674 36.5818383,83.9805674 C39.9444199,83.9805674 42.6689589,86.7064965 42.6689589,90.0676879 C42.6689589,93.4288794 39.9444199,96.1548085 36.5818383,96.1548085 C33.2206468,96.1548085 30.4947177,93.4288794 30.4947177,90.0676879 Z" id="Stroke-17" stroke="#FFFFFF" stroke-width="3"></path>
                <path d="M48.6689589,90.0676879 C48.6689589,86.7064965 51.3948879,83.9805674 54.7560794,83.9805674 C58.118661,83.9805674 60.8432,86.7064965 60.8432,90.0676879 C60.8432,93.4288794 58.118661,96.1548085 54.7560794,96.1548085 C51.3948879,96.1548085 48.6689589,93.4288794 48.6689589,90.0676879 Z" id="Stroke-19" stroke="#FFFFFF" stroke-width="3"></path>
                <path d="M117.999923,255.575787 L45.883044,255.575787 L44.9377957,237.781489 L14.2658809,240.52966 C10.9199801,209.731248 20.5587319,188.41173 44.0551007,171.899078 L44.2636113,172.243816 C49.5820227,176.621149 59.1387603,179.540298 70.0424766,179.540298 C86.3243773,179.540298 99.528661,173.031986 100.250108,164.87922 L100.396065,164.615106 L103.719725,164.441348 C108.737881,164.441348 114.278704,167.004638 117.73025,170.123957 L135.042193,181.952071 L123.568548,214.096071 L111.397087,208.731787 L117.999923,255.575787 Z" id="Fill-61" fill="#1E68FC"></path>
                <path d="M100.250664,164.879081 C99.529217,173.031847 86.3235433,179.540159 70.0430326,179.540159 C59.1393163,179.540159 49.5825787,176.62101 44.2641674,172.243677 L44.0542667,171.898939 C48.0326496,169.102116 52.4072028,166.444301 57.1848766,163.901861 L59.1254156,147.42396 L58.2302099,140.618173 L85.162834,138.769379 L85.162834,165.465691 L100.396621,164.616357 L100.250664,164.879081 Z" id="Fill-63" fill="#FFCDCD"></path>
                <line x1="102.348003" y1="138.94425" x2="102.348003" y2="138.94425" id="Stroke-65" stroke="#1A171C" stroke-width="1.39007092"></line>
                <g id="Group-69" transform="translate(15.985816, 237.706687)">
                    <mask id="mask-2" fill="white">
                        <use xlink:href="#path-1"></use>
                    </mask>
                    <g id="Clip-68"></g>
                    <path d="M104.737118,36.5182922 C104.855274,36.5043915 104.97621,36.4960511 105.098536,36.4960511 C106.777742,36.4960511 108.138621,37.8583206 108.138621,39.5375262 C108.138621,41.218122 106.777742,42.5776113 105.098536,42.5776113 L104.796891,42.5651007 L98.7125504,42.2662355 C105.198621,50.9750298 108.226196,59.2181504 107.791104,66.991427 C107.791104,68.6720227 106.430224,70.0315121 104.751018,70.0315121 C103.071813,70.0315121 101.709543,68.6720227 101.709543,66.991427 C101.174366,61.8245333 99.9441532,58.0991433 98.0175149,55.819427 L99.5702241,72.3265191 C99.606366,72.5127887 99.6244369,72.7032284 99.6244369,72.8992284 C99.6244369,74.5798241 98.2635574,75.9393135 96.5843518,75.9393135 C94.9051461,75.9393135 93.5428766,74.5798241 93.5428766,72.8992284 C92.9312454,66.8927319 91.8734014,62.2999376 90.3721248,59.1208454 L90.0246071,73.8027745 C90.0246071,75.4819801 88.6637277,76.8442496 86.984522,76.8442496 C85.6069617,76.8442496 84.4420823,75.9254128 84.0681532,74.6687887 C83.986139,74.3935546 83.9430468,74.1044199 83.9430468,73.8027745 C83.9430468,73.6484766 83.9541674,73.4969589 83.9750184,73.3496113 L82.9004936,57.9045333 C75.8458837,57.5347745 71.9064227,55.4496681 71.0848908,51.6492142 C22.1905362,43.8384057 7.2403234,31.085895 0.519330496,2.62141277 L28.850366,0.0859234043 C40.3295716,22.4577248 72.402678,35.7064908 104.737118,36.5182922" id="Fill-67" fill="#FFCDCD" mask="url(#mask-2)"></path>
                </g>
                <path d="M50.5814837,211.008028 L49.8711574,237.974014 L47.4190723,238.463319 C46.5085759,238.645418 46.2375121,237.281759 47.1452284,237.10105 L48.5116681,236.828596 L49.1914128,210.971887 C49.216434,210.046099 50.606505,210.082241 50.5814837,211.008028" id="Fill-70" fill="#0F4BC3"></path>
                <path d="M59.0087887,150.869807 C56.2800794,152.843708 53.3567603,153.307991 50.234661,152.259878 C53.5875121,151.531481 55.6197957,148.17724 54.8385759,145.395708 C52.058434,148.95846 44.8467461,148.002091 42.3279376,146.004559 C62.3977816,138.880445 36.8538383,108.993921 63.2665759,97.1783177 C82.378661,73.8946298 103.752391,104.997467 123.473328,102.217325 C120.441583,110.306148 115.605526,115.432729 108.965157,117.595679 C110.167569,120.371651 115.132902,121.157041 119.911966,119.593211 C118.81103,124.140133 115.423427,126.6228 109.746377,127.037041 L59.0087887,150.869807 Z" id="Fill-72" fill="#111111"></path>
                <path d="M65.5436511,127.374272 C70.8704028,123.293024 72.9360482,116.466386 72.6483035,105.605762 C78.8855518,114.350698 88.4714809,117.652116 101.406091,115.510017 C101.406091,115.510017 102.590431,140.899662 102.590431,141.910244 C102.590431,151.83118 94.550261,159.87274 84.6293248,159.87274 C74.7097787,159.87274 66.1358213,151.23206 66.1358213,141.312513 C66.1358213,131.392967 65.5436511,127.374272 65.5436511,127.374272" id="Fill-74" fill="#FFCDCD"></path>
                <path d="M86.5,147 C81.8333333,151.666667 81.8333333,154 86.5,154 C91.1666667,154 91.1666667,151.666667 86.5,147 Z" id="Path-2" fill="#111111" transform="translate(86.500000, 150.500000) rotate(-180.000000) translate(-86.500000, -150.500000) "></path>
                <path d="M74.9946043,126.804204 C74.9946043,125.508658 76.0454979,124.459155 77.3396539,124.459155 C78.6352,124.459155 79.6860936,125.508658 79.6860936,126.804204 C79.6860936,128.09975 78.6352,129.149254 77.3396539,129.149254 C76.0454979,129.149254 74.9946043,128.09975 74.9946043,126.804204" id="Fill-76" fill="#111111"></path>
                <path d="M91.3279376,126.804204 C91.3279376,125.508658 92.3788312,124.459155 93.6729872,124.459155 C94.9685333,124.459155 96.019427,125.508658 96.019427,126.804204 C96.019427,128.09975 94.9685333,129.149254 93.6729872,129.149254 C92.3788312,129.149254 91.3279376,128.09975 91.3279376,126.804204" id="Fill-78" fill="#111111"></path>
                <path d="M101.639345,121.157041 L104.924082,121.157041 C107.732026,121.157041 110.007572,125.414828 110.007572,130.670687 C110.007572,135.923765 107.732026,140.184332 104.924082,140.184332 C104.09699,140.184332 103.228196,139.813183 102.623515,139.154289 L101.639345,121.157041 Z" id="Fill-80" fill="#FFFFFF"></path>
                <path d="M92.7952965,143.556922 C92.0891404,146.150794 89.7148993,148.059362 86.8972255,148.059362 C84.2352397,148.059362 81.8846298,146.360695 81.1312113,143.987844 L81.1061901,140.490426 L88.5500199,139.661943 L93.8503603,141.487106 L92.6979915,143.882199 L92.7952965,143.556922 Z" id="Fill-82" fill="#FFFFFF"></path>
                <path d="M51.2765191,136.143674 C51.2765191,131.422993 53.4978525,127.375106 56.6574837,125.669489 C55.9860794,123.72478 55.6204908,121.636894 55.6204908,119.462823 C55.6204908,111.586681 60.4162355,104.830936 67.248434,101.95627 C62.0301078,105.339702 58.5785617,111.214142 58.5785617,117.896213 C58.5785617,120.334397 59.0386752,122.665546 59.9046894,124.806255 C62.1093418,124.806255 64.0373702,125.769574 65.5442071,127.373716 L66.9370582,145.015106 C65.4302213,146.620638 62.1093418,147.481092 60.0075546,147.481092 C55.1867887,147.481092 51.2765191,142.404553 51.2765191,136.143674" id="Fill-84" fill="#FFFFFF"></path>
                <path d="M87.3314837,140.618034 C92.8403348,144.244729 94.4555972,144.26697 99.4084199,140.53185 C94.2818383,140.877977 95.8456681,131.930091 87.2452993,137.055282 C78.6435404,131.930091 78.557356,142.355623 73.4307745,142.008105 C78.3835972,145.744616 81.8212426,144.244729 87.3314837,140.618034" id="Fill-86" fill="#111111"></path>
                <polygon id="Fill-88" fill="#FF8A8A" points="86.3064454 128.97619 95.1528567 136.012729 86.8722043 137.780899"></polygon>
                <path d="M85.1635291,159.864539 L85.1635291,164.316936 L84.9995007,164.507376 C77.0149333,163.969418 68.5188199,157.816965 67.3873021,147.812624 C70.1160113,154.724057 76.9718411,159.872879 84.6297418,159.872879 L85.1635291,159.864539 Z" id="Fill-90" fill="#FF8A8A"></path>
                <path d="M123.56827,214.09621 L135.041915,181.95221 L137.726142,183.785713 C139.241319,184.839387 140.457631,184.405685 141.504355,182.814054 L160.920865,145.917401 L166.742482,126.630167 C167.219277,124.632635 168.121433,123.641515 169.815929,123.55394 C171.693915,123.459416 171.478454,127.07777 171.431191,127.290451 C171.436752,131.520437 170.395589,134.164352 172.38617,136.274479 C176.447957,129.333855 189.83573,118.731784 190.79905,118.731784 C192.499106,118.731784 193.875277,120.109345 193.875277,121.806621 C193.875277,122.623983 193.55556,123.370451 193.035674,123.919529 L180.552837,137.490791 L194.812184,125.846167 C195.368213,125.242877 196.161943,124.870338 197.046028,124.870338 C198.728014,124.870338 200.091674,126.232607 200.091674,127.914593 C200.091674,129.009969 199.512014,129.969118 198.64461,130.507075 L186.460638,142.877316 L198.281801,133.476267 C198.772496,132.913288 199.489773,132.56021 200.296014,132.56021 C201.77227,132.56021 202.96773,133.755671 202.96773,135.231926 C202.96773,136.310621 202.325518,137.241969 201.403901,137.66316 L189.938596,146.959955 L198.238709,141.057713 C198.716894,140.333487 199.535645,139.858082 200.469773,139.858082 C201.946028,139.858082 203.141489,141.053543 203.141489,142.529799 C203.141489,143.634905 202.471475,144.581543 201.513716,144.988834 L186.463418,157.473061 C184.53956,164.889089 179.324014,167.437089 172.907447,166.508522 L163.613433,205.383245 C162.028752,214.535472 154.052525,221.494167 144.447135,221.494167 C141.81434,221.494167 139.302482,220.970111 137.013035,220.023472 L136.208184,219.667614 L123.56827,214.09621 Z" id="Fill-92" fill="#FFCDCD"></path>
            </g>
        </g>
    </g>
</svg>